<?xml version="1.0" encoding="UTF-8"?>
<svg version="1.1" xmlns="http://www.w3.org/2000/svg" width="512" height="512">
<path d="M0 0 C1.80307617 0.00483398 1.80307617 0.00483398 3.64257812 0.00976562 C4.88845703 0.01814453 6.13433594 0.02652344 7.41796875 0.03515625 C8.68318359 0.03966797 9.94839844 0.04417969 11.25195312 0.04882812 C14.36983985 0.06059374 17.48763008 0.07703353 20.60546875 0.09765625 C20.62005127 0.80897705 20.63463379 1.52029785 20.6496582 2.25317383 C20.72407881 5.47271957 20.82075875 8.69122143 20.91796875 11.91015625 C20.95180664 13.58948242 20.95180664 13.58948242 20.98632812 15.30273438 C21.02177734 16.37587891 21.05722656 17.44902344 21.09375 18.5546875 C21.11993408 19.5444458 21.14611816 20.5342041 21.1730957 21.55395508 C21.68022663 24.53746562 22.27011708 25.2511477 24.60546875 27.09765625 C26.52161326 27.54414324 26.52161326 27.54414324 28.65193176 27.47517967 C29.89123837 27.48691454 29.89123837 27.48691454 31.15558147 27.49888647 C32.06306039 27.4921943 32.9705393 27.48550214 33.90551758 27.47860718 C34.86968251 27.48328715 35.83384745 27.48796712 36.8272295 27.49278891 C40.07245775 27.5047977 43.31726828 27.49525863 46.5625 27.48583984 C48.88317106 27.48990293 51.20384018 27.49524332 53.52450562 27.50177002 C59.83842561 27.5154807 66.15219902 27.51012946 72.46612167 27.50063276 C79.06311193 27.49305559 85.66008935 27.50007636 92.25708008 27.50479126 C104.04750672 27.51120534 115.83787151 27.50126168 127.62828743 27.48601325 C138.32351383 27.47260956 149.01864255 27.4749375 159.71386719 27.48876953 C172.12707486 27.50481584 184.54022022 27.51080453 196.95343685 27.50193274 C203.52689396 27.49724734 210.10028375 27.49665515 216.67373657 27.50654221 C222.85265449 27.51518609 229.03138733 27.50923714 235.21028519 27.49185944 C237.48273028 27.48788079 239.75519085 27.48905203 242.02762985 27.49564743 C245.12043934 27.50379858 248.21264905 27.49361922 251.30541992 27.47860718 C252.21289884 27.48529934 253.12037775 27.49199151 254.05535603 27.49888647 C254.88156043 27.49106322 255.70776484 27.48323998 256.55900574 27.47517967 C257.27315234 27.47469262 257.98729895 27.47420556 258.72308636 27.47370374 C261.18623743 26.98163487 262.07855579 26.05751361 263.60546875 24.09765625 C264.11026532 21.49085395 264.11026532 21.49085395 264.1171875 18.5546875 C264.15263672 17.48154297 264.18808594 16.40839844 264.22460938 15.30273438 C264.24716797 14.18318359 264.26972656 13.06363281 264.29296875 11.91015625 C264.32712891 10.77900391 264.36128906 9.64785156 264.39648438 8.48242188 C264.47903189 5.68759885 264.54816057 2.89309227 264.60546875 0.09765625 C268.8970032 0.0095854 273.18830099 -0.04309296 277.48046875 -0.08984375 C278.68445313 -0.11498047 279.8884375 -0.14011719 281.12890625 -0.16601562 C293.76338572 -0.2690141 303.11521734 2.34754826 312.58203125 10.87890625 C321.596437 20.23854456 322.19326683 31.37598732 322.11340332 43.73474121 C322.11801931 45.29970042 322.12437689 46.86465529 322.1323123 48.42960119 C322.14893303 52.70482754 322.14079252 56.97969443 322.12836742 61.25492167 C322.11928938 65.87531963 322.13330028 70.49565726 322.14428711 75.11604309 C322.16204758 84.15744359 322.15824337 93.19871106 322.14663655 102.24011672 C322.13759276 109.59007648 322.13638231 116.93999903 322.14073181 124.28996277 C322.14134474 125.33715834 322.14195768 126.38435391 322.14258918 127.46328267 C322.14386812 129.59082577 322.14516497 131.71836885 322.14647955 133.84591192 C322.1578781 153.78283443 322.144783 173.71968331 322.12327808 193.65659374 C322.10540777 210.75303296 322.10851208 227.84936352 322.12695312 244.94580078 C322.14837262 264.81274087 322.15677954 284.67961646 322.14450407 304.54656649 C322.14322991 306.66616089 322.14197243 308.78575531 322.14073181 310.90534973 C322.13980616 312.46955737 322.13980616 312.46955737 322.13886181 314.06536517 C322.13541215 321.40412214 322.14122897 328.74283812 322.15065002 336.08158875 C322.16188336 345.02849033 322.15880187 353.97525158 322.13752705 362.92213714 C322.12703463 367.48455518 322.1228639 372.04673949 322.13612366 376.60915565 C322.14809094 380.79017773 322.14141404 384.97075062 322.12021345 389.15173227 C322.11576568 390.65966009 322.11797238 392.16762629 322.1277166 393.67552918 C322.20542465 406.70590819 320.23048841 416.37222611 310.97265625 425.93359375 C301.91400956 434.21493082 293.30188661 435.39728911 281.37261963 435.36508179 C280.14116707 435.3696129 278.9097145 435.37414401 277.6409452 435.37881243 C274.23465192 435.38926342 270.82857023 435.39078558 267.42227602 435.38842368 C263.74388405 435.38801474 260.06552332 435.39906203 256.387146 435.40853882 C249.1847532 435.42513332 241.98239315 435.43064767 234.77998284 435.43176357 C228.92354574 435.43271482 223.06711942 435.43682893 217.21068573 435.44316483 C200.59582601 435.46077329 183.98099211 435.47000436 167.36612299 435.46850388 C166.02328567 435.46838401 166.02328567 435.46838401 164.65332031 435.46826172 C163.75699858 435.46817996 162.86067684 435.4680982 161.93719384 435.46801396 C147.41474055 435.46720125 132.89239102 435.48633606 118.36996773 435.51453845 C103.44787186 435.54328764 88.52582657 435.55707762 73.60370231 435.5553509 C65.23032736 435.55468768 56.85706119 435.56014992 48.48371124 435.581707 C41.35379741 435.59994563 34.22404166 435.60424421 27.09411457 435.59068815 C23.45926422 435.58417186 19.82471689 435.58399234 16.18989563 435.60139465 C12.24187544 435.62010133 8.29429436 435.60753577 4.34625244 435.59213257 C3.20800215 435.60241969 2.06975186 435.61270682 0.89700913 435.62330568 C-10.55343319 435.52483949 -18.98298219 432.44132034 -27.23046875 424.46875 C-33.43405394 417.67168103 -36.64038681 410.75091319 -36.65180016 401.4370842 C-36.65530623 400.78988672 -36.6588123 400.14268925 -36.66242462 399.47587973 C-36.67171819 397.31022913 -36.66682069 395.14484865 -36.66195679 392.97918701 C-36.66569409 391.40958444 -36.67029593 389.83998374 -36.67568743 388.27038598 C-36.68792309 383.95922723 -36.6876563 379.64814606 -36.68529868 375.33697391 C-36.68489066 370.68652573 -36.69592832 366.03610247 -36.70541382 361.38566589 C-36.72202808 352.27510598 -36.72752356 343.16457194 -36.72863857 334.05399814 C-36.72958888 326.64813948 -36.73369831 319.24228937 -36.74003983 311.83643341 C-36.75765368 290.83893628 -36.76687851 269.84145959 -36.76537888 248.84395501 C-36.76529897 247.71192935 -36.76521905 246.57990369 -36.76513672 245.41357422 C-36.76505496 244.2801661 -36.7649732 243.14675799 -36.76488896 241.97900417 C-36.7640761 223.61147111 -36.7832134 205.24402005 -36.81141345 186.87651071 C-36.84014134 168.01635965 -36.85395379 149.1562486 -36.8522259 130.29607511 C-36.85156195 119.70775213 -36.85705649 109.11951512 -36.878582 98.53121185 C-36.89679255 89.51573653 -36.90114217 80.50038614 -36.88756315 71.48490039 C-36.88103279 66.88617725 -36.88091878 62.2876938 -36.89826965 57.68899345 C-36.91400245 53.47576669 -36.91113472 49.26296963 -36.89370139 45.04975334 C-36.89063194 43.52890153 -36.89426186 42.00801764 -36.90542154 40.48720369 C-36.99242459 27.7852536 -34.96148014 18.75165053 -26.03515625 9.3671875 C-18.3720846 2.78102681 -9.96251466 -0.04721571 0 0 Z M55.91796875 72.47265625 C55.0465625 73.21386719 54.17515625 73.95507812 53.27734375 74.71875 C49.90214361 77.72386241 46.54040755 80.74265655 43.1953125 83.78125 C40.41277259 86.27000742 37.5918259 88.69989216 34.73046875 91.09765625 C33.40402344 92.21140625 33.40402344 92.21140625 32.05078125 93.34765625 C28.20814732 96.09765625 28.20814732 96.09765625 25.60546875 96.09765625 C23.4921875 94.41015625 23.4921875 94.41015625 21.29296875 92.09765625 C18.3222993 89.10865778 18.3222993 89.10865778 14.5 87.75 C12.25270786 88.08825222 10.26061618 88.44250882 8.60546875 90.09765625 C8.62208703 93.46285825 8.79444978 96.06255574 10.92382812 98.78027344 C12.66800154 100.44572391 14.47208577 101.96671237 16.35546875 103.47265625 C16.97679687 104.00503906 17.598125 104.53742188 18.23828125 105.0859375 C22.84605093 109.00734195 22.84605093 109.00734195 28.60546875 110.09765625 C31.24167849 108.59964874 31.24167849 108.59964874 33.73046875 106.28515625 C35.17292969 105.03798828 35.17292969 105.03798828 36.64453125 103.765625 C40.39251116 100.38848743 44.12819936 96.99942844 47.8359375 93.578125 C50.6225518 91.0823562 53.49299837 88.74142493 56.41796875 86.41015625 C60.70763341 82.95630018 64.20252752 79.42031133 67.60546875 75.09765625 C66.980135 72.57401637 66.980135 72.57401637 65.60546875 70.09765625 C61.1385804 68.39779942 59.41320963 69.45692775 55.91796875 72.47265625 Z M91.60546875 86.09765625 C90.4293468 87.88436696 90.4293468 87.88436696 90.60546875 90.09765625 C93.23235377 93.43615916 94.74298314 94.93797451 98.97380924 95.72127533 C100.26926387 95.72056282 101.56471849 95.71985031 102.89942932 95.71911621 C103.98578726 95.72869944 103.98578726 95.72869944 105.09409183 95.73847628 C107.51584904 95.75371178 109.93596634 95.73327672 112.35766602 95.71289062 C114.09573915 95.71639225 115.83380909 95.7220513 117.5718689 95.72970581 C122.28884592 95.74395646 127.00524022 95.72689025 131.72216153 95.70342064 C136.65705227 95.68332048 141.59191861 95.68919071 146.52684021 95.69152832 C154.81315733 95.69147474 163.09924645 95.67171423 171.38549805 95.63964844 C180.96895785 95.60274332 190.55211909 95.59397451 200.13564068 95.60094595 C209.35194724 95.60724813 218.5681513 95.59650272 227.78443718 95.57698059 C231.70820512 95.5688006 235.63192073 95.56609814 239.55569649 95.56767273 C244.17440058 95.5685508 248.79282034 95.55435644 253.41144943 95.5284462 C255.10778233 95.5212761 256.80414546 95.51920482 258.50049019 95.52256393 C260.81346723 95.52627089 263.12561083 95.51155957 265.43849182 95.49206543 C266.73356942 95.48833672 268.02864702 95.484608 269.3629694 95.4807663 C272.79213461 95.07560118 274.22369209 94.55813903 276.60546875 92.09765625 C277.09299359 89.31180001 277.09914013 87.84311935 275.52413177 85.46479511 C272.57785268 83.36543081 270.05343015 83.72297669 266.46936035 83.72343445 C265.7379579 83.71946004 265.00655545 83.71548564 264.25298929 83.71139079 C261.79541655 83.70174508 259.33841622 83.71359928 256.88085938 83.7253418 C255.12175786 83.72291458 253.36265772 83.71919594 251.6035614 83.71427917 C246.82055894 83.70485698 242.03776064 83.71430675 237.25477409 83.7276113 C232.2553389 83.73890901 227.25591401 83.7348196 222.25646973 83.73286438 C213.85991064 83.73198087 205.4634322 83.74307367 197.06689453 83.76147461 C187.35171759 83.78264309 177.63665882 83.78615244 167.92146349 83.77991265 C158.58558112 83.77422288 149.24974049 83.77986008 139.91386414 83.7910862 C135.93624604 83.79573732 131.95865341 83.79660382 127.98103333 83.79450035 C123.29922948 83.79262014 118.61754635 83.8007007 113.93577003 83.81656075 C112.21482149 83.82081231 110.49386072 83.82164832 108.77290916 83.81887054 C106.42899825 83.81566057 104.08545069 83.82470038 101.74157715 83.83695984 C100.42823143 83.83901271 99.11488571 83.84106558 97.76174164 83.84318066 C94.44560381 83.85320494 94.44560381 83.85320494 91.60546875 86.09765625 Z M51.98046875 147.22265625 C47.52739267 151.30464266 42.92893356 155.14559156 38.234375 158.9453125 C34.61396188 161.90942488 31.09839465 164.98504893 27.60546875 168.09765625 C24.33312689 165.99400791 21.3922948 163.93465944 18.54296875 161.28515625 C15.84803336 158.80996897 15.84803336 158.80996897 12.85546875 159.16015625 C10.45758825 159.99170355 10.45758825 159.99170355 8.60546875 162.09765625 C8.01007544 164.46608433 8.01007544 164.46608433 8.60546875 167.09765625 C10.79970903 169.75521056 10.79970903 169.75521056 13.73046875 172.16015625 C14.68179688 172.99675781 15.633125 173.83335937 16.61328125 174.6953125 C21.78124745 179.33180536 21.78124745 179.33180536 28.16015625 181.12890625 C31.32983279 179.79217365 33.25809681 177.98884583 35.73046875 175.59765625 C36.699595 174.67863449 37.67100962 173.76202069 38.64453125 172.84765625 C39.13598633 172.38488281 39.62744141 171.92210937 40.13378906 171.4453125 C42.37535631 169.39264973 44.73535122 167.49918321 47.10546875 165.59765625 C52.02083205 161.63570393 56.66970628 157.45805192 61.29296875 153.1640625 C63.60546875 151.09765625 63.60546875 151.09765625 66.60546875 149.09765625 C67.7815907 147.31094554 67.7815907 147.31094554 67.60546875 145.09765625 C65.31364603 142.30567893 65.31364603 142.30567893 62.60546875 140.09765625 C58.70614966 140.09765625 54.62866716 144.75159486 51.98046875 147.22265625 Z M90.60546875 160.09765625 C91.72401461 163.82379778 91.72401461 163.82379778 94.60546875 166.09765625 C96.94236256 166.19891241 99.28224215 166.23280396 101.62132263 166.23809814 C102.35187066 166.24106927 103.08241868 166.24404039 103.83510453 166.24710155 C106.2955987 166.25580872 108.75604435 166.25729848 111.21655273 166.25878906 C112.97550562 166.26341574 114.7344575 166.2684402 116.4934082 166.27383423 C121.28052823 166.28697314 126.06763422 166.29340588 130.85476947 166.29784489 C133.84284388 166.30077271 136.83091442 166.30487692 139.81898689 166.30934906 C149.16019595 166.32302681 158.50139621 166.33269258 167.84261459 166.33655095 C178.64050647 166.34103505 189.43827197 166.35859809 200.23612541 166.38755155 C208.57330126 166.40913424 216.91044146 166.41925337 225.24764496 166.42059207 C230.2315923 166.42164239 235.21542088 166.42759836 240.19933891 166.44541168 C244.88524741 166.46183389 249.57094715 166.46407651 254.25687408 166.45527267 C255.97944509 166.4544992 257.70202704 166.45888567 259.42457008 166.46873093 C261.7708425 166.48135777 264.11636507 166.47562493 266.46263123 166.46514893 C268.43459803 166.46734877 268.43459803 166.46734877 270.44640255 166.46959305 C273.56361399 166.35927947 273.56361399 166.35927947 275.52455235 164.73093796 C277.0987932 162.35223523 277.09298844 160.88348304 276.60546875 158.09765625 C274.22369209 155.63717347 272.79213461 155.11971132 269.3629694 154.7145462 C268.0678918 154.71081749 266.7728142 154.70708878 265.43849182 154.70324707 C264.71581318 154.69715597 263.99313455 154.69106486 263.24855655 154.68478918 C260.82643341 154.66813707 258.40483469 154.67293798 255.98266602 154.67773438 C254.24636284 154.67039533 252.51006456 154.66180959 250.77377319 154.65206909 C246.05683952 154.62982755 241.34008039 154.62692371 236.62310147 154.6288166 C232.68659628 154.62893618 228.75012825 154.62037746 224.81363338 154.61203909 C215.5276673 154.5927957 206.24179111 154.58992469 196.95581055 154.59667969 C187.37288421 154.60332234 177.79034261 154.58044926 168.20749432 154.54336596 C159.98232792 154.51269026 151.75728542 154.50130658 143.53206295 154.50520277 C138.61843625 154.50727239 133.70510893 154.50175826 128.79153633 154.47731018 C124.17111264 154.45508058 119.55131544 154.4568891 114.93088913 154.4772377 C113.23495817 154.48065443 111.53898535 154.47553015 109.84311104 154.46125412 C107.52781675 154.44310825 105.21465843 154.45577265 102.89942932 154.47619629 C101.6039747 154.47548378 100.30852007 154.47477127 98.97380924 154.47403717 C94.77771915 155.25090692 93.28751448 156.86843477 90.60546875 160.09765625 Z M54.48046875 215.97265625 C53.03994141 217.20435547 53.03994141 217.20435547 51.5703125 218.4609375 C47.79007012 221.82281314 44.05359421 225.22962359 40.33203125 228.65625 C36.23668752 232.32328414 31.9459179 235.72698207 27.60546875 239.09765625 C24.39807308 237.27427378 21.74707341 235.41449852 19.10546875 232.84765625 C16.40301619 230.396111 16.40301619 230.396111 12.79296875 230.09765625 C10.46019805 231.0101876 10.46019805 231.0101876 8.60546875 233.09765625 C7.95715428 235.44106545 7.95715428 235.44106545 8.60546875 238.09765625 C10.48045005 240.20258809 12.22587811 241.91993301 14.35546875 243.72265625 C15.16371094 244.43808594 15.16371094 244.43808594 15.98828125 245.16796875 C17.50696044 246.50144316 19.05551093 247.80067082 20.60546875 249.09765625 C21.63414062 250.00644531 21.63414062 250.00644531 22.68359375 250.93359375 C25.25209502 252.489312 26.64863827 252.60259192 29.60546875 252.09765625 C31.99978964 250.45557722 31.99978964 250.45557722 34.23046875 248.16015625 C37.73531376 244.83704395 41.2731208 241.68034917 45.04296875 238.66015625 C49.89835496 234.73452485 54.51903291 230.6031438 59.09765625 226.359375 C60.80095526 224.82322215 62.56006886 223.34722698 64.36328125 221.9296875 C66.6782468 220.29348526 66.6782468 220.29348526 67.60546875 218.09765625 C67.75453995 215.9765359 67.75453995 215.9765359 66.48046875 213.84765625 C64.74489572 211.89808934 64.74489572 211.89808934 62.30859375 211.74609375 C58.71145038 212.21393032 57.2157143 213.61299666 54.48046875 215.97265625 Z M91.60742092 228.96059227 C90.30232034 231.13980467 90.30232034 231.13980467 91.35546875 233.78515625 C92.40775185 235.99520772 92.40775185 235.99520772 93.60546875 237.09765625 C95.92623388 237.20190587 98.21749305 237.24099078 100.53903198 237.23809814 C101.27280913 237.24106927 102.00658629 237.24404039 102.76259911 237.24710155 C105.24001879 237.25582567 107.71739036 237.25729991 110.19482422 237.25878906 C111.96348169 237.26341461 113.73213816 237.26843891 115.50079346 237.27383423 C120.31896344 237.28698549 125.13711948 237.29340846 129.95530462 237.29784489 C132.96230223 237.30077117 135.96929598 237.30487512 138.97629166 237.30934906 C148.37516923 237.32303105 157.77403804 237.33269432 167.17292488 237.33655095 C178.03987708 237.34103386 188.90670364 237.3585896 199.77361763 237.38755155 C208.16172829 237.40913471 216.54980352 237.41925342 224.93794167 237.42059207 C229.95320273 237.4216425 234.96834579 237.42760069 239.98357773 237.44541168 C244.69984127 237.46183436 249.4158974 237.46407627 254.13217926 237.45527267 C255.86603728 237.45449918 257.59990618 237.4588859 259.33373642 237.46873093 C261.69538744 237.4813574 264.05629344 237.47562507 266.41793823 237.46514893 C267.45436331 237.47723353 267.45436331 237.47723353 268.51172626 237.48956227 C271.3442144 237.46004518 273.18496989 237.39462679 275.53515816 235.73484421 C277.05040909 233.41705852 276.95264149 231.8056036 276.60546875 229.09765625 C274.18506417 226.67725167 272.92698705 226.85451578 269.62395865 226.82084525 C268.92756905 226.82394245 268.23117945 226.82703965 267.51368713 226.83023071 C266.774972 226.8256996 266.03625687 226.82116849 265.27515644 226.81650007 C262.78697198 226.80378716 260.29900447 226.80548083 257.81079102 226.80712891 C256.03213212 226.80114798 254.25347584 226.79434344 252.474823 226.78677368 C247.63397149 226.76906286 242.79319062 226.76441619 237.95230985 226.76314211 C233.91631154 226.76124645 229.88032982 226.75389283 225.84433788 226.74679792 C216.32549735 226.73049731 206.80669467 226.72563052 197.2878418 226.72705078 C187.45617975 226.72825289 177.62473699 226.70714107 167.79313046 226.67556345 C159.36252924 226.64944679 150.93199984 226.63868153 142.50135845 226.6399616 C137.4614908 226.64047256 132.42181794 226.63471557 127.38199043 226.6136055 C122.64349272 226.59430037 117.90537717 226.59404536 113.1668663 226.60863876 C111.42494463 226.61073756 109.68299953 226.6059627 107.94111824 226.59391785 C105.56836832 226.57856968 103.19695344 226.58770263 100.82423401 226.60317993 C100.13007513 226.59289281 99.43591625 226.58260568 98.72072226 226.57200682 C95.53514368 226.61813098 93.9802499 226.74821852 91.60742092 228.96059227 Z M52.66796875 288.84765625 C51.34300192 290.03707576 50.01746662 291.22586228 48.69140625 292.4140625 C48.01819336 293.0239502 47.34498047 293.63383789 46.65136719 294.26220703 C43.41696895 297.16390225 40.10459551 299.97233919 36.79296875 302.78515625 C32.60066156 306.3327357 32.60066156 306.3327357 28.60546875 310.09765625 C24.1319797 309.7248655 21.69971615 306.6406108 18.60546875 303.69140625 C16.51899986 302.02875135 15.24000856 301.39159251 12.60546875 301.09765625 C10.25920371 302.10731984 10.25920371 302.10731984 8.60546875 304.09765625 C7.68481135 306.41906657 7.68481135 306.41906657 8.60546875 309.09765625 C10.65586209 311.75934699 13.06966574 313.9049052 15.60546875 316.09765625 C16.36214844 316.75894531 17.11882812 317.42023438 17.8984375 318.1015625 C22.00623178 321.67166426 22.00623178 321.67166426 26.98046875 323.61328125 C30.84929443 322.85333335 33.16241313 320.50131077 35.98046875 317.91015625 C37.21995416 316.80848357 38.45954108 315.70692508 39.69921875 314.60546875 C40.65828125 313.74163574 40.65828125 313.74163574 41.63671875 312.86035156 C44.2434245 310.52647067 46.89056552 308.24146002 49.54101562 305.95751953 C51.44285614 304.31758908 53.33721066 302.6693561 55.23046875 301.01953125 C57.23423979 299.2768306 59.25054873 297.56133975 61.29296875 295.86328125 C62.01484375 295.26 62.73671875 294.65671875 63.48046875 294.03515625 C64.07601562 293.54917969 64.6715625 293.06320312 65.28515625 292.5625 C66.90354722 290.76694789 67.3195633 289.48496679 67.60546875 287.09765625 C66.59580516 284.75139121 66.59580516 284.75139121 64.60546875 283.09765625 C59.16877925 281.93056727 56.37443605 285.41452582 52.66796875 288.84765625 Z M91.60742092 299.96059227 C90.30232034 302.13980467 90.30232034 302.13980467 91.35546875 304.78515625 C92.40775185 306.99520772 92.40775185 306.99520772 93.60546875 308.09765625 C95.92623388 308.20190587 98.21749305 308.24099078 100.53903198 308.23809814 C101.27280913 308.24106927 102.00658629 308.24404039 102.76259911 308.24710155 C105.24001879 308.25582567 107.71739036 308.25729991 110.19482422 308.25878906 C111.96348169 308.26341461 113.73213816 308.26843891 115.50079346 308.27383423 C120.31896344 308.28698549 125.13711948 308.29340846 129.95530462 308.29784489 C132.96230223 308.30077117 135.96929598 308.30487512 138.97629166 308.30934906 C148.37516923 308.32303105 157.77403804 308.33269432 167.17292488 308.33655095 C178.03987708 308.34103386 188.90670364 308.3585896 199.77361763 308.38755155 C208.16172829 308.40913471 216.54980352 308.41925342 224.93794167 308.42059207 C229.95320273 308.4216425 234.96834579 308.42760069 239.98357773 308.44541168 C244.69984127 308.46183436 249.4158974 308.46407627 254.13217926 308.45527267 C255.86603728 308.45449918 257.59990618 308.4588859 259.33373642 308.46873093 C261.69538744 308.4813574 264.05629344 308.47562507 266.41793823 308.46514893 C267.45436331 308.47723353 267.45436331 308.47723353 268.51172626 308.48956227 C271.3442144 308.46004518 273.18496989 308.39462679 275.53515816 306.73484421 C277.05040909 304.41705852 276.95264149 302.8056036 276.60546875 300.09765625 C274.18506417 297.67725167 272.92698705 297.85451578 269.62395865 297.82084525 C268.92756905 297.82394245 268.23117945 297.82703965 267.51368713 297.83023071 C266.774972 297.8256996 266.03625687 297.82116849 265.27515644 297.81650007 C262.78697198 297.80378716 260.29900447 297.80548083 257.81079102 297.80712891 C256.03213212 297.80114798 254.25347584 297.79434344 252.474823 297.78677368 C247.63397149 297.76906286 242.79319062 297.76441619 237.95230985 297.76314211 C233.91631154 297.76124645 229.88032982 297.75389283 225.84433788 297.74679792 C216.32549735 297.73049731 206.80669467 297.72563052 197.2878418 297.72705078 C187.45617975 297.72825289 177.62473699 297.70714107 167.79313046 297.67556345 C159.36252924 297.64944679 150.93199984 297.63868153 142.50135845 297.6399616 C137.4614908 297.64047256 132.42181794 297.63471557 127.38199043 297.6136055 C122.64349272 297.59430037 117.90537717 297.59404536 113.1668663 297.60863876 C111.42494463 297.61073756 109.68299953 297.6059627 107.94111824 297.59391785 C105.56836832 297.57856968 103.19695344 297.58770263 100.82423401 297.60317993 C100.13007513 297.59289281 99.43591625 297.58260568 98.72072226 297.57200682 C95.53514368 297.61813098 93.9802499 297.74821852 91.60742092 299.96059227 Z M55.04296875 358.03515625 C50.62900222 362.17689577 46.07011443 366.02036624 41.3515625 369.80859375 C37.6664914 372.88035998 34.22483288 376.18842677 30.796875 379.54296875 C28.60546875 381.09765625 28.60546875 381.09765625 26.6484375 381.09375 C23.88747759 379.74758408 21.7185746 377.99404663 19.35546875 376.03515625 C18.4634375 375.30167969 17.57140625 374.56820313 16.65234375 373.8125 C15.976875 373.24660156 15.30140625 372.68070312 14.60546875 372.09765625 C11.3556374 373.18550593 11.3556374 373.18550593 8.60546875 375.09765625 C8.75114487 379.30217038 9.02171735 381.45821476 11.8984375 384.609375 C12.85363281 385.32738281 13.80882812 386.04539062 14.79296875 386.78515625 C15.78296875 387.54054688 16.77296875 388.2959375 17.79296875 389.07421875 C20.69260065 391.16034281 23.57191443 393.2119333 26.60546875 395.09765625 C31.29846019 393.00418001 34.59024298 390.51878653 38.29296875 386.97265625 C42.14307961 383.33887751 46.03779 379.85468387 50.16796875 376.53515625 C54.09194846 373.35941721 57.9527868 370.13272751 61.73046875 366.78515625 C63.09558594 365.58439453 63.09558594 365.58439453 64.48828125 364.359375 C66.55772198 362.14866249 67.45950832 361.09936429 67.60546875 358.09765625 C66.0017503 355.74384974 66.0017503 355.74384974 63.60546875 354.09765625 C58.811254 354.09765625 58.37361105 354.82522916 55.04296875 358.03515625 Z M90.60546875 373.09765625 C91.68178344 376.67869882 91.68178344 376.67869882 94.24040318 379.24542522 C97.4661065 380.40777966 100.2671344 380.35285401 103.69651794 380.35835266 C104.41102948 380.36217821 105.12554101 380.36600376 105.86170441 380.36994523 C108.25610367 380.38026469 110.65026266 380.37628514 113.04467773 380.37231445 C114.76127342 380.37666151 116.47786716 380.38184463 118.19445801 380.38780212 C122.85765311 380.4012039 127.52076723 380.4017695 132.18397784 380.39923882 C136.07573795 380.39816994 139.96748162 380.40305035 143.85923821 380.40784425 C153.03971621 380.41894345 162.2201533 380.41937447 171.40063477 380.41333008 C180.87440162 380.40728854 190.34802002 380.41960492 199.82176155 380.44090015 C207.9534975 380.45850732 216.08518615 380.46451891 224.21694046 380.4612624 C229.07459903 380.45944803 233.93215169 380.46210107 238.78979301 380.47597694 C243.35755754 380.48853633 247.92509037 380.48662914 252.49285126 380.47356606 C254.16942739 380.47119662 255.84601973 380.47394809 257.52257729 380.48218918 C259.81113346 380.49262754 262.098908 380.48458005 264.38743591 380.47187805 C265.66814185 380.47204579 266.94884779 380.47221354 268.268363 380.47238636 C271.82383511 380.07313547 273.72980435 379.17013131 276.60546875 377.09765625 C276.34985552 374.75453495 276.01276103 372.41922222 275.60546875 370.09765625 C272.62432286 368.60708331 269.92340124 368.96131421 266.59634399 368.95048523 C265.86650154 368.94680854 265.13665908 368.94313185 264.38470018 368.93934375 C261.9265444 368.9282854 259.46843086 368.92445947 257.01025391 368.9206543 C255.25292323 368.91439136 253.49559388 368.90774472 251.73826599 368.90074158 C246.95521515 368.88331819 242.17217432 368.87277657 237.3890996 368.86453605 C234.40302766 368.85938964 231.41695886 368.85331381 228.43088913 368.84702492 C219.09448585 368.82797071 209.7580905 368.81373901 200.42167151 368.80541295 C189.63224236 368.79563303 178.84301796 368.76929482 168.05366099 368.72891206 C159.72156586 368.69879271 151.38952957 368.68394813 143.05738103 368.68063194 C138.07727127 368.67827702 133.09738018 368.66925924 128.11732864 368.64417076 C123.43383573 368.6209575 118.75070654 368.61662947 114.0671711 368.62693214 C112.34662608 368.62742924 110.62606357 368.621058 108.90557289 368.6073761 C106.55946199 368.58976037 104.21467111 368.59671106 101.86856079 368.60990906 C100.55483805 368.6075207 99.2411153 368.60513235 97.88758278 368.60267162 C94.10194919 369.17359342 92.93167768 370.13430755 90.60546875 373.09765625 Z " fill="#183D80" transform="translate(113.39453125,65.90234375)"/>
<path d="M0 0 C5.28 0 10.56 0 16 0 C16.06058594 1.49273437 16.12117188 2.98546875 16.18359375 4.5234375 C16.26799173 6.47396862 16.3526401 8.42448892 16.4375 10.375 C16.47681641 11.35984375 16.51613281 12.3446875 16.55664062 13.359375 C16.59853516 14.30039062 16.64042969 15.24140625 16.68359375 16.2109375 C16.73858032 17.51490479 16.73858032 17.51490479 16.79467773 18.84521484 C16.87401544 21.0483262 16.87401544 21.0483262 18 23 C20.71312051 23.9043735 22.26963652 24.1255147 25.05430603 24.12698364 C26.28870171 24.13121338 26.28870171 24.13121338 27.54803467 24.13552856 C28.89698822 24.13249222 28.89698822 24.13249222 30.27319336 24.12939453 C31.22305618 24.13114685 32.17291901 24.13289917 33.15156555 24.13470459 C36.29767676 24.13911291 39.44373195 24.13618844 42.58984375 24.1328125 C44.77315787 24.13348589 46.95647191 24.13445621 49.13978577 24.13571167 C53.71876742 24.13718731 58.29772959 24.13503858 62.87670898 24.13037109 C68.7491788 24.12467727 74.62160288 24.12795148 80.49407101 24.13394356 C85.00387416 24.13755565 89.51366645 24.13640753 94.02346992 24.13381577 C96.18883838 24.13314812 98.35420781 24.13396927 100.51957512 24.13629532 C103.54554736 24.13883205 106.5714454 24.13496659 109.59741211 24.12939453 C110.49469025 24.13141876 111.39196838 24.13344299 112.31643677 24.13552856 C113.55506218 24.13129883 113.55506218 24.13129883 114.81871033 24.12698364 C115.89136343 24.1264181 115.89136343 24.1264181 116.9856863 24.12584114 C119.35951698 24.0387353 119.35951698 24.0387353 123 23 C123.33 15.41 123.66 7.82 124 0 C129.28 0 134.56 0 140 0 C140.04898438 1.98644531 140.09796875 3.97289062 140.1484375 6.01953125 C140.20406806 7.94573929 140.25976598 9.87194605 140.31738281 11.7980957 C140.37444092 13.7929536 140.42164442 15.7880854 140.46875 17.78320312 C140.50742187 19.03681641 140.54609375 20.29042969 140.5859375 21.58203125 C140.6173584 22.73936768 140.6487793 23.8967041 140.68115234 25.08911133 C140.79471033 28.19127028 140.79471033 28.19127028 143 31 C145.89968745 31.33745213 148.60163144 31.4893235 151.5078125 31.51171875 C152.25281006 31.52835571 152.99780762 31.54499268 153.76538086 31.56213379 C156.55163262 31.62002147 159.33837044 31.65220741 162.125 31.6875 C168.35375 31.790625 174.5825 31.89375 181 32 C181 45.2 181 58.4 181 72 C107.74 72 34.48 72 -41 72 C-41 58.8 -41 45.6 -41 32 C-28.46 31.67 -15.92 31.34 -3 31 C-0.98092029 26.96184058 -0.71030135 25.09731422 -0.5859375 20.703125 C-0.54726562 19.49785156 -0.50859375 18.29257812 -0.46875 17.05078125 C-0.42234375 15.16939453 -0.42234375 15.16939453 -0.375 13.25 C-0.33632812 11.98027344 -0.29765625 10.71054687 -0.2578125 9.40234375 C-0.1635606 6.26846819 -0.08069218 3.13425402 0 0 Z " fill="#03AADF" transform="translate(186,11)"/>
<path d="M0 0 C28.38 0 56.76 0 86 0 C86 4.62 86 9.24 86 14 C57.62 14 29.24 14 0 14 C0 9.38 0 4.76 0 0 Z " fill="#02AADE" transform="translate(213,11)"/>
</svg>
